<svg xmlns="http://www.w3.org/2000/svg" width="1167" height="500" viewBox="0 0 1167 500">
  <defs>
    <style>
      .cls-1 {
        fill-rule: evenodd;
      }
    </style>
  </defs>
  <path class="cls-1" d="M309.983,410.806c0,33.524,27.643,61.192,61.991,61.192,15.913,0,29.325-4.694,40.212-12.571V444.673l-0.838-.838a62.453,62.453,0,0,1-39.374,14.586,47.617,47.617,0,0,1,0-95.231,62.479,62.479,0,0,1,39.374,14.583l0.838-.838V362.184c-10.887-7.879-24.3-12.567-40.212-12.567-34.348,0-61.991,27.657-61.991,61.189h0Zm185.968,14.247L517.562,369.9l21.782,55.156H495.951Zm27.479-72.921H511.705l-0.842.835L464.284,468.648l0.838,0.835h12.4l0.837-.835,12.4-30.677H544.37l12.563,30.677,0.838,0.835h12.4l0.837-.835L524.264,352.967Zm104.042,0-0.837.835V468.645l0.837,0.834H638.7l0.841-.834V411.476h41.043l0.838-.842v-11.4l-0.838-.835H639.536V365.038h54.455l0.83-.838V352.967l-0.83-.835ZM765.692,456.57V411.48h41.043l0.845-.842v-11.4l-0.845-.834H765.692V365.035h54.451l0.838-.839V352.967l-0.838-.835H753.628l-0.838.835V468.648l0.838,0.835h71.541l0.838-.835V457.415l-0.838-.842Zm-594.878-262H132.069l-3.452-.171c-3.913,0-5.9-1.107-5.9-3.294,0-.782.562-2.351,1.668-4.754l25.025-55.551c0.752-1.714,1.452-2.548,2.037-2.448,1.2,0.086,2.3,1.509,3.329,4.251l1.027,2.683,20.136,50.8,0.637,2.317a11.365,11.365,0,0,1,.629,2.951c0,2.131-2.133,3.219-6.4,3.219Zm75.127,74.788c-8.1-1.472-13.5-3.458-16.141-5.984q-3.993-3.8-10.005-19.333l-2.818-6.918L161.822,95.743c-0.919-2.467-2.078-3.692-3.455-3.692s-2.595,1.285-3.709,3.826l-65.9,146.5-3.712,8.469a59.594,59.594,0,0,1-7.182,11.39q-4.362,5.409-6.929,6.244l-4.747,1.375a2.711,2.711,0,0,0-2.178,2.779c0,1.588,1.151,2.348,3.463,2.348,0.424,0,2.8-.239,7.153-0.716,1.374-.1,3.273-0.182,5.756-0.182,5.38,0,10.094.134,14.19,0.29l12.283,0.738c1.955,0.119,3.414.16,4.338,0.16,2.491,0,3.679-.73,3.6-2.149-0.108-1.5-1.4-2.5-3.984-3q-8.847-1.917-11.855-4.612c-2.014-1.826-3.016-4.728-3.016-8.76q0-6.309,5.7-19.273l8.393-18.92q3.859-8.724,6.151-10.268,2.329-1.542,11.814-1.535h46.423c4.781,0,7.689.339,8.7,1.077,1.028,0.719,2.446,3.439,4.23,8.152l6.408,16.975q7.84,20.319,7.837,27.131c0,4.981-2.17,7.883-6.434,8.755l-3.973.9c-2.133.406-3.2,1.286-3.2,2.616,0,1.743,1.106,2.623,3.348,2.623a21.977,21.977,0,0,0,3.973-.511c2.978-.5,10.425-0.752,22.3-0.752q17.074,0,23.718.655c2.488,0.16,4.1.246,4.874,0.246,2.32,0,3.515-.719,3.582-2.135,0.079-1.606-1.187-2.626-3.839-3.126Zm67.174-161.207c1.928-1.68,5.417-2.5,10.473-2.5q20.331,0,33.429,12.019c8.709,8.037,13.1,18.26,13.1,30.705q0,16.111-9.643,25.353-9.663,9.267-26.481,9.289H319.489c-3.939,0-6.456-.541-7.518-1.632-1.091-1.055-1.6-3.607-1.6-7.66V121.458l-0.131-4.218c0-4.385.935-7.4,2.875-9.094h0Zm13.653,166.911c3.85,0.361,6.382.563,7.581,0.563,2.99,0,4.393-.824,4.226-2.474-0.082-1.617-1.679-2.56-4.74-2.91-7.7-.749-13.393-2.616-17.068-5.51a14.189,14.189,0,0,1-5.179-7.277c-0.734-2.7-1.091-7.768-1.091-15.142l-0.123-5.134V197.01c0-2.154.5-3.525,1.527-4.121l2.829-.518h17.046c4.632,0,7.957,1.755,10,5.246l1.8,2.831L375.5,249.2q9.483,14.385,18.661,20.715a35.392,35.392,0,0,0,20.7,6.368,47.1,47.1,0,0,0,12.63-1.58c3.72-1.055,5.63-2.225,5.708-3.532,0.089-1.125-.644-1.725-2.193-1.826l-4.1-.268q-13.878-.9-30.245-24.955L392.56,238l-35.417-52.22q31.7-15.828,31.679-44.691,0-21.969-15-33.081-14.991-11.088-44.476-11.088-7.824,0-18.088.622c-9.484.592-16.182,0.883-20.133,0.883-4.516,0-8.333-.1-11.408-0.35-5.284-.35-8.273-0.537-8.985-0.537-2.889,0-4.36.883-4.36,2.635,0,1.508,1.378,2.518,4.1,3.014l6.054,0.9q13.962,2.325,13.951,22.355l0.28,13.353v92.3c0,14.456-1.091,24.173-3.225,29.079q-3.173,7.395-13.46,9.337-3.195.593-3.2,2.5c0,1.744,1.068,2.6,3.2,2.6,1.285,0,3.582-.142,6.933-0.507,4.1-.421,7.6-0.644,10.526-0.644l6.65-.1,12.313,0.127c7.354,0,12.768.171,16.275,0.562ZM456.952,102.7c7.935,1.27,13.144,3.755,15.583,7.451s3.664,10.839,3.664,21.457V241.6c0,10.89-.957,18-2.826,21.4q-2.826,5.064-12.563,6.744c-2.662.413-3.973,1.382-3.973,2.891,0,1.74,1.132,2.638,3.459,2.638,1.616,0,3.679-.153,6.147-0.4l15.136-.906,18.591,0.28a105.742,105.742,0,0,1,13.59.581,35.429,35.429,0,0,0,4.878.44c2.625,0,3.973-1.021,3.973-3.022,0-1.509-2.156-2.556-6.419-3.159q-8.076-1.152-11.863-3.856c-2.536-1.785-4.639-4.866-6.36-9.255q-2.156-5.784-2.174-23.786V135.981q0-27.121,9.465-30.73l6.7-2.552c2.2-.753,3.344-1.889,3.344-3.4,0-1.595-1.177-2.366-3.482-2.366-0.5,0-1.567.026-3.2,0.127l-8.587.73c-4.5.276-9.945,0.4-16.29,0.4A217.46,217.46,0,0,1,458.9,97.058a19.9,19.9,0,0,0-2.32-.127c-2.573,0-3.824.894-3.72,2.75,0.079,1.49,1.441,2.522,4.089,3.018h0Zm242.37,145.2q-19.368,21.69-49.144,21.717-28.541,0-49.265-20.462c0.6-.655,1.214-1.277,1.814-1.944,33.19,12.615,81.989-15.552,90.173-47.8,1.065-4.2-19.533-1.285-20.84,3.816-6.121,24.2-35.022,48.919-58.893,31.814A475.069,475.069,0,0,0,641.323,196.7c16.264-24.5,31.407-49.687,47.783-73.983a87.945,87.945,0,0,1,6.385,6.319q23.217,25.553,23.216,63.86,0,33.287-19.381,55.011ZM572.8,177.509q0-33.979,17.507-54,15.13-17.28,39.323-19.646c4.945,0,10.254,0,15.836-.037a73.946,73.946,0,0,1,29.574,8.9c-1.523,2.224-3.038,4.426-4.479,6.494-27.881,40.25-52.068,81.811-80.9,116.416q-16.856-24.49-16.859-58.13v0ZM733.7,64.949c1.869-2,38.831-30.089,37.692-18.64-2.447,24.147-31.723,32.429-50.623,37.474-1.4.369-2.674,0.708-4.025,1.032,5.447-6.773,11.01-13.435,16.956-19.866h0Zm-35.268,44.46c2.2-3.107,4.293-6.282,6.557-9.344,43.485-6.178,84.193-22.519,88.59-65.905,0.272-2.7-1.712-4.434-4.233-4.944C747.864,20.806,714.864,57.1,690.163,91.1a226.482,226.482,0,0,1-36.15,4.337c-2.666-.183-5.355-0.328-8.125-0.328a102.4,102.4,0,0,0-37.833,7.262q-18.43,7.254-30.506,19.542a84.8,84.8,0,0,0-18.151,29.05,96.327,96.327,0,0,0-6.728,35.052c0,26.33,8.076,47.716,24.064,64.269-36.1,38.5-80.481,65.474-147.223,66.893a12.378,12.378,0,0,0-3.582.708,8.682,8.682,0,0,0-3.742-.95c-15.091-.019-30.26.2-45.019-3.271a16.643,16.643,0,0,0-14.968,4.024c-3.2,3.2-2.26,7.548,2.338,8.636,16.394,3.819,33.045,4,49.793,4a25.571,25.571,0,0,0,4.334-.4,13.894,13.894,0,0,0,2.908.2c72.062-1.546,124.007-25.7,167.872-69.046,15.27,10.581,33.842,15.965,55.8,15.965q40.374,0,66.284-26.293,25.9-26.244,25.911-67.295,0-38.714-25.733-63.514a86.461,86.461,0,0,0-13.281-10.532v0Zm136.3,62.243q-24.341-8.076-30.547-11.166a34.1,34.1,0,0,1-11.453-9.766,29.824,29.824,0,0,1-6.013-18.625,26,26,0,0,1,9.252-20.346q9.267-8.166,23.078-8.167a57.431,57.431,0,0,1,31.5,9.013q14.115,9.025,18.744,22.9c1.381,4.124,2.77,6.2,4.17,6.2q2.731,0,2.726-4.006c0-.663-0.209-2.41-0.607-5.26l-2.067-13.193a125.879,125.879,0,0,1-1.668-12.955c0-4.3-1.072-6.382-3.224-6.285a1.622,1.622,0,0,0-1.367.484l-1.828,1.55a4.757,4.757,0,0,1-3.09,1.311,6.221,6.221,0,0,1-2.305-.521l-8.832-3.73q-9.472-3.962-23.211-3.979-24.351,0-39.807,13.07-15.442,13.105-15.456,33.856,0,18.594,11.852,30.257,11.829,11.67,40.268,21.29,27.517,9.214,33.317,14.24c7.476,6.531,11.23,14.519,11.23,24.034,0,9.933-4.063,18.335-12.191,25.295-8.158,6.915-18.088,10.4-29.876,10.4a53.566,53.566,0,0,1-32.215-10.824Q780.3,245.94,775.659,229.975c-1.195-4.128-2.576-6.237-4.188-6.293-1.717-.112-2.592,1.144-2.592,3.715,0,3.26,1.106,8.711,3.344,16.412,1.947,7.083,3.038,10.98,3.2,11.666a62.059,62.059,0,0,0,2.316,8.941,7.917,7.917,0,0,0,3.094,3.242c3.649,2.5,9.45,4.668,17.373,6.553a93.435,93.435,0,0,0,21.711,2.825q27.273,0,44.74-15.246,17.454-15.275,17.441-39.248,0-35.382-47.373-50.89h0ZM1062.94,247.9q-19.425,21.69-49.16,21.717-32.614,0-54.982-26.665-22.419-26.636-22.408-65.443,0-33.979,17.519-54,17.516-20.04,47.291-20.056,34.635,0,57.88,25.578,23.22,25.551,23.26,63.86,0,33.285-19.4,55.011h0Zm12.38-127.958q-25.695-24.82-65.84-24.829a102.418,102.418,0,0,0-37.833,7.262c-12.276,4.836-22.485,11.356-30.517,19.541a84.711,84.711,0,0,0-18.125,29.05,96.194,96.194,0,0,0-6.743,35.052q0,40.787,25.583,65.924,25.575,25.1,66.985,25.105,40.395,0,66.3-26.293,25.92-26.244,25.88-67.295,0-38.714-25.7-63.514Z"/>
</svg>
